<svg xmlns="http://www.w3.org/2000/svg" xmlns:xlink="http://www.w3.org/1999/xlink" width="500" zoomAndPan="magnify" viewBox="0 0 375 374.999991" height="500" preserveAspectRatio="xMidYMid meet" version="1.0"><defs><g/><clipPath id="4982d7c284"><path d="M 68.59375 168.355469 L 106.84375 168.355469 L 106.84375 206.605469 L 68.59375 206.605469 Z M 68.59375 168.355469 " clip-rule="nonzero"/></clipPath></defs><rect x="-37.5" width="450" fill="#ffffff" y="-37.499999" height="449.999989" fill-opacity="1"/><rect x="-37.5" width="450" fill="#ffffff" y="-37.499999" height="449.999989" fill-opacity="1"/><rect x="-37.5" width="450" fill="#000000" y="-37.499999" height="449.999989" fill-opacity="1"/><g clip-path="url(#4982d7c284)"><path fill="#ffffff" d="M 76.226562 199.722656 L 76.660156 200.152344 L 76.703125 200.195312 C 78.050781 201.589844 78.035156 203.839844 76.660156 205.214844 C 75.285156 206.59375 73.039062 206.605469 71.644531 205.257812 L 71.597656 205.214844 L 71.167969 204.785156 L 69.988281 203.601562 C 68.597656 202.210938 68.597656 199.933594 69.988281 198.539062 C 71.378906 197.144531 73.660156 197.144531 75.050781 198.539062 Z M 100.101562 180.128906 L 100.519531 179.707031 L 105.414062 174.8125 C 106.804688 173.421875 106.804688 171.144531 105.414062 169.746094 C 104.019531 168.355469 101.742188 168.355469 100.351562 169.746094 L 95.941406 174.164062 L 95.460938 174.644531 L 95.039062 175.0625 L 92.507812 177.59375 C 91.121094 178.988281 91.121094 181.265625 92.507812 182.660156 L 95.039062 185.191406 L 95.492188 185.640625 L 100.386719 190.535156 C 101.777344 191.925781 104.050781 191.925781 105.449219 190.535156 C 106.839844 189.144531 106.839844 186.863281 105.449219 185.472656 L 100.554688 180.574219 Z M 70.191406 169.78125 L 70.191406 169.777344 C 71.582031 168.386719 73.859375 168.386719 75.25 169.777344 L 105.378906 199.929688 C 106.777344 201.320312 106.777344 203.601562 105.378906 204.992188 C 103.988281 206.386719 101.714844 206.386719 100.320312 204.992188 L 70.191406 174.839844 C 68.800781 173.449219 68.800781 171.171875 70.191406 169.78125 Z M 70.144531 184.214844 C 71.535156 182.824219 73.8125 182.824219 75.207031 184.214844 L 78.636719 187.648438 L 86.0625 195.078125 L 90.957031 199.972656 C 92.347656 201.363281 92.347656 203.644531 90.957031 205.035156 C 89.558594 206.429688 87.285156 206.429688 85.894531 205.035156 L 81 200.140625 L 73.578125 192.710938 L 70.144531 189.28125 C 68.753906 187.886719 68.753906 185.605469 70.144531 184.214844 Z M 70.144531 184.214844 " fill-opacity="1" fill-rule="evenodd"/></g><g fill="#ffffff" fill-opacity="1"><g transform="translate(113.805033, 197.870598)"><g><path d="M 2.34375 0 L 2.34375 -22.1875 L 9.15625 -22.1875 C 13.0625 -22.1875 15.9375 -21.191406 17.78125 -19.203125 C 19.632812 -17.210938 20.5625 -14.488281 20.5625 -11.03125 C 20.5625 -7.625 19.632812 -4.929688 17.78125 -2.953125 C 15.9375 -0.984375 13.0625 0 9.15625 0 Z M 5 -2.21875 L 9.09375 -2.21875 C 11.25 -2.21875 12.960938 -2.570312 14.234375 -3.28125 C 15.515625 -3.988281 16.429688 -5 16.984375 -6.3125 C 17.535156 -7.632812 17.8125 -9.207031 17.8125 -11.03125 C 17.8125 -12.882812 17.535156 -14.476562 16.984375 -15.8125 C 16.429688 -17.144531 15.515625 -18.171875 14.234375 -18.890625 C 12.960938 -19.609375 11.25 -19.96875 9.09375 -19.96875 L 5 -19.96875 Z M 5 -2.21875 "/></g></g></g><g fill="#ffffff" fill-opacity="1"><g transform="translate(140.772029, 197.870598)"><g><path d="M 2.34375 0 L 2.34375 -22.1875 L 16.0625 -22.1875 L 16.0625 -20 L 5 -20 L 5 -12.265625 L 15.109375 -12.265625 L 15.109375 -10.109375 L 5 -10.109375 L 5 -2.1875 L 16.0625 -2.1875 L 16.0625 0 Z M 2.34375 0 "/></g></g></g><g fill="#ffffff" fill-opacity="1"><g transform="translate(163.556279, 197.870598)"><g><path d="M 9.03125 0 L 0.703125 -22.1875 L 3.578125 -22.1875 L 10.578125 -2.8125 L 17.65625 -22.1875 L 20.46875 -22.1875 L 12.140625 0 Z M 9.03125 0 "/></g></g></g><g fill="#ffffff" fill-opacity="1"><g transform="translate(189.62534, 197.870598)"><g><path d="M 1.078125 0 L 8.015625 -11.21875 L 0.984375 -22.1875 L 5.640625 -22.1875 L 10.609375 -14.453125 L 15.171875 -22.1875 L 19.734375 -22.1875 L 12.796875 -11.03125 L 19.90625 0 L 15.234375 0 L 10.203125 -7.828125 L 5.640625 0 Z M 1.078125 0 "/></g></g></g><g fill="#ffffff" fill-opacity="1"><g transform="translate(215.418307, 197.870598)"><g><path d="M 9.40625 0.375 C 7.78125 0.375 6.363281 0.0820312 5.15625 -0.5 C 3.957031 -1.09375 3.03125 -1.914062 2.375 -2.96875 C 1.71875 -4.03125 1.390625 -5.257812 1.390625 -6.65625 L 4.1875 -6.65625 C 4.1875 -5.789062 4.382812 -4.992188 4.78125 -4.265625 C 5.1875 -3.535156 5.773438 -2.953125 6.546875 -2.515625 C 7.316406 -2.085938 8.269531 -1.875 9.40625 -1.875 C 10.90625 -1.875 12.066406 -2.234375 12.890625 -2.953125 C 13.710938 -3.671875 14.125 -4.566406 14.125 -5.640625 C 14.125 -6.523438 13.929688 -7.238281 13.546875 -7.78125 C 13.171875 -8.320312 12.660156 -8.757812 12.015625 -9.09375 C 11.378906 -9.425781 10.644531 -9.71875 9.8125 -9.96875 C 8.976562 -10.226562 8.101562 -10.519531 7.1875 -10.84375 C 5.476562 -11.425781 4.210938 -12.15625 3.390625 -13.03125 C 2.566406 -13.914062 2.15625 -15.066406 2.15625 -16.484375 C 2.132812 -17.660156 2.40625 -18.707031 2.96875 -19.625 C 3.539062 -20.550781 4.347656 -21.269531 5.390625 -21.78125 C 6.441406 -22.300781 7.6875 -22.5625 9.125 -22.5625 C 10.539062 -22.5625 11.769531 -22.296875 12.8125 -21.765625 C 13.863281 -21.242188 14.675781 -20.515625 15.25 -19.578125 C 15.832031 -18.648438 16.132812 -17.597656 16.15625 -16.421875 L 13.375 -16.421875 C 13.375 -17.023438 13.210938 -17.628906 12.890625 -18.234375 C 12.578125 -18.835938 12.097656 -19.328125 11.453125 -19.703125 C 10.804688 -20.085938 10 -20.28125 9.03125 -20.28125 C 7.820312 -20.300781 6.832031 -19.992188 6.0625 -19.359375 C 5.289062 -18.722656 4.90625 -17.847656 4.90625 -16.734375 C 4.90625 -15.785156 5.175781 -15.054688 5.71875 -14.546875 C 6.257812 -14.035156 7.015625 -13.613281 7.984375 -13.28125 C 8.953125 -12.957031 10.070312 -12.585938 11.34375 -12.171875 C 12.394531 -11.785156 13.34375 -11.335938 14.1875 -10.828125 C 15.039062 -10.328125 15.703125 -9.675781 16.171875 -8.875 C 16.648438 -8.070312 16.890625 -7.046875 16.890625 -5.796875 C 16.890625 -4.742188 16.613281 -3.742188 16.0625 -2.796875 C 15.507812 -1.859375 14.679688 -1.09375 13.578125 -0.5 C 12.472656 0.0820312 11.082031 0.375 9.40625 0.375 Z M 9.40625 0.375 "/></g></g></g><g fill="#ffffff" fill-opacity="1"><g transform="translate(238.646187, 197.870598)"><g><path d="M 2.34375 0 L 2.34375 -22.1875 L 9.640625 -22.1875 C 11.367188 -22.1875 12.789062 -21.898438 13.90625 -21.328125 C 15.03125 -20.753906 15.859375 -19.984375 16.390625 -19.015625 C 16.929688 -18.046875 17.203125 -16.945312 17.203125 -15.71875 C 17.203125 -14.507812 16.9375 -13.421875 16.40625 -12.453125 C 15.882812 -11.484375 15.0625 -10.707031 13.9375 -10.125 C 12.820312 -9.539062 11.390625 -9.25 9.640625 -9.25 L 5 -9.25 L 5 0 Z M 5 -11.5 L 9.5625 -11.5 C 11.34375 -11.5 12.609375 -11.875 13.359375 -12.625 C 14.109375 -13.375 14.484375 -14.40625 14.484375 -15.71875 C 14.484375 -17.050781 14.109375 -18.09375 13.359375 -18.84375 C 12.609375 -19.59375 11.34375 -19.96875 9.5625 -19.96875 L 5 -19.96875 Z M 5 -11.5 "/></g></g></g><g fill="#ffffff" fill-opacity="1"><g transform="translate(261.905756, 197.870598)"><g><path d="M 0.953125 0 L 9.125 -22.1875 L 11.953125 -22.1875 L 20.09375 0 L 17.265625 0 L 15.234375 -5.703125 L 5.796875 -5.703125 L 3.734375 0 Z M 6.59375 -7.859375 L 14.453125 -7.859375 L 10.515625 -18.828125 Z M 6.59375 -7.859375 "/></g></g></g><g fill="#ffffff" fill-opacity="1"><g transform="translate(287.858751, 197.870598)"><g><path d="M 12.078125 0.375 C 9.898438 0.375 8.023438 -0.101562 6.453125 -1.0625 C 4.878906 -2.019531 3.65625 -3.359375 2.78125 -5.078125 C 1.914062 -6.804688 1.484375 -8.8125 1.484375 -11.09375 C 1.484375 -13.351562 1.914062 -15.34375 2.78125 -17.0625 C 3.65625 -18.78125 4.878906 -20.125 6.453125 -21.09375 C 8.023438 -22.070312 9.898438 -22.5625 12.078125 -22.5625 C 14.609375 -22.5625 16.671875 -21.953125 18.265625 -20.734375 C 19.859375 -19.523438 20.878906 -17.832031 21.328125 -15.65625 L 18.375 -15.65625 C 18.039062 -17.03125 17.347656 -18.132812 16.296875 -18.96875 C 15.253906 -19.800781 13.847656 -20.21875 12.078125 -20.21875 C 10.492188 -20.21875 9.109375 -19.851562 7.921875 -19.125 C 6.734375 -18.394531 5.816406 -17.347656 5.171875 -15.984375 C 4.535156 -14.617188 4.21875 -12.988281 4.21875 -11.09375 C 4.21875 -9.1875 4.535156 -7.550781 5.171875 -6.1875 C 5.816406 -4.832031 6.734375 -3.789062 7.921875 -3.0625 C 9.109375 -2.332031 10.492188 -1.96875 12.078125 -1.96875 C 13.847656 -1.96875 15.253906 -2.375 16.296875 -3.1875 C 17.347656 -4 18.039062 -5.082031 18.375 -6.4375 L 21.328125 -6.4375 C 20.878906 -4.300781 19.859375 -2.628906 18.265625 -1.421875 C 16.671875 -0.222656 14.609375 0.375 12.078125 0.375 Z M 12.078125 0.375 "/></g></g></g><g fill="#ffffff" fill-opacity="1"><g transform="translate(315.586239, 197.870598)"><g><path d="M 2.34375 0 L 2.34375 -22.1875 L 16.0625 -22.1875 L 16.0625 -20 L 5 -20 L 5 -12.265625 L 15.109375 -12.265625 L 15.109375 -10.109375 L 5 -10.109375 L 5 -2.1875 L 16.0625 -2.1875 L 16.0625 0 Z M 2.34375 0 "/></g></g></g></svg>